<svg width="34" height="24" xmlns="http://www.w3.org/2000/svg">
  <!-- Fox body -->
  <ellipse cx="17" cy="16" rx="12" ry="6" fill="#FF6B35"/>
  
  <!-- Fox head -->
  <circle cx="17" cy="8" r="7" fill="#FF6B35"/>
  
  <!-- Fox ears -->
  <polygon points="12,4 15,8 9,8" fill="#FF6B35"/>
  <polygon points="22,4 25,8 19,8" fill="#FF6B35"/>
  <polygon points="12.5,5 14,7 10.5,7" fill="#2C1810"/>
  <polygon points="21.5,5 23,7 19.5,7" fill="#2C1810"/>
  
  <!-- Fox snout -->
  <ellipse cx="17" cy="10" rx="3" ry="2" fill="#FFB366"/>
  
  <!-- Fox nose -->
  <circle cx="17" cy="9" r="1" fill="#2C1810"/>
  
  <!-- Fox eyes -->
  <circle cx="14" cy="7" r="1.5" fill="#2C1810"/>
  <circle cx="20" cy="7" r="1.5" fill="#2C1810"/>
  <circle cx="14.3" cy="6.7" r="0.5" fill="#FFFFFF"/>
  <circle cx="20.3" cy="6.7" r="0.5" fill="#FFFFFF"/>
  
  <!-- Fox tail -->
  <ellipse cx="28" cy="14" rx="4" ry="3" fill="#FF6B35"/>
  <ellipse cx="29" cy="14" rx="2" ry="1.5" fill="#FFFFFF"/>
</svg> 