<svg width="34" height="24" xmlns="http://www.w3.org/2000/svg">
  <!-- Fox body -->
  <ellipse cx="17" cy="16" rx="12" ry="6" fill="#FF6B35"/>
  
  <!-- Fox head -->
  <circle cx="17" cy="8" r="7" fill="#FF6B35"/>
  
  <!-- Fox ears (raised) -->
  <polygon points="12,2 15,6 9,6" fill="#FF6B35"/>
  <polygon points="22,2 25,6 19,6" fill="#FF6B35"/>
  <polygon points="12.5,3 14,5 10.5,5" fill="#2C1810"/>
  <polygon points="21.5,3 23,5 19.5,5" fill="#2C1810"/>
  
  <!-- Fox snout -->
  <ellipse cx="17" cy="10" rx="3" ry="2" fill="#FFB366"/>
  
  <!-- Fox nose -->
  <circle cx="17" cy="9" r="1" fill="#2C1810"/>
  
  <!-- Fox eyes (more alert) -->
  <circle cx="14" cy="7" r="1.5" fill="#2C1810"/>
  <circle cx="20" cy="7" r="1.5" fill="#2C1810"/>
  <circle cx="14.3" cy="6.5" r="0.7" fill="#FFFFFF"/>
  <circle cx="20.3" cy="6.5" r="0.7" fill="#FFFFFF"/>
  
  <!-- Fox tail (raised) -->
  <ellipse cx="28" cy="12" rx="4" ry="3" fill="#FF6B35"/>
  <ellipse cx="29" cy="12" rx="2" ry="1.5" fill="#FFFFFF"/>
  
  <!-- Wings/arms (raised) -->
  <ellipse cx="8" cy="14" rx="3" ry="1.5" fill="#FF8C42" transform="rotate(-30 8 14)"/>
  <ellipse cx="26" cy="14" rx="3" ry="1.5" fill="#FF8C42" transform="rotate(30 26 14)"/>
</svg> 